<?xml version="1.0" encoding="UTF-8" standalone="no"?>
<!DOCTYPE svg PUBLIC "-//W3C//DTD SVG 1.1//EN" "http://www.w3.org/Graphics/SVG/1.1/DTD/svg11.dtd">
<svg version="1.1" xmlns="http://www.w3.org/2000/svg" xmlns:xlink="http://www.w3.org/1999/xlink" preserveAspectRatio="xMidYMid meet" viewBox="0 0 600 1200" width="10" height="20"><defs><path d="M600 300C600 465.58 465.57 600 300 600C134.43 600 0 465.58 0 300C0 134.43 134.43 0 300 0C465.57 0 600 134.43 600 300Z" id="a13rE3fMs"></path><path d="M0 300L600 300L600 1003.13L0 1003.13L0 300Z" id="csduYplNt"></path><path d="M0 1100L600 1100L600 1200L0 1200L0 1100Z" id="a2l5yCyPe"></path><path d="M75 1000L525 1000L525 1100L75 1100L75 1000Z" id="a2EFwlsKV"></path><path d="M300 300L567.76 300L567.76 998.68L300 998.68L300 300Z" id="ct921zzW"></path><path d="M262.5 1012.5L487.5 1012.5L487.5 1092.76L262.5 1092.76L262.5 1012.5Z" id="anZk0Dz9M"></path><path d="M300 1107.89L562.5 1107.89L562.5 1188.16L300 1188.16L300 1107.89Z" id="f1i0i4yXuL"></path><path d="M300 37.5L551.92 300L300 300L300 37.5Z" id="b3MYUkXv"></path><path d="M479.76 135.24C549.69 214.01 586.21 295.95 561.26 318.1C536.3 340.25 459.27 294.28 389.34 215.51C319.41 136.73 282.9 54.79 307.85 32.64C332.8 10.49 409.84 56.46 479.76 135.24Z" id="b2Lk5HHoTH"></path><path d="M164.9 157.41C191.3 121.35 198.07 81.33 180 68.09C161.92 54.86 125.81 73.4 99.41 109.46C73 145.53 66.24 185.55 84.31 198.78C102.38 212.02 138.49 193.48 164.9 157.41Z" id="g7Eywgw5wb"></path></defs><g><g><g><use xlink:href="#a13rE3fMs" opacity="1" fill="#333333" fill-opacity="1"></use></g><g><g><filter id="shadow6618375" x="-9" y="291" width="619" height="722.12" filterUnits="userSpaceOnUse" primitiveUnits="userSpaceOnUse"><feFlood></feFlood><feComposite in2="SourceAlpha" operator="in"></feComposite><feGaussianBlur stdDeviation="1"></feGaussianBlur><feOffset dx="1" dy="1" result="afterOffset"></feOffset><feFlood flood-color="#333333" flood-opacity="0.5"></feFlood><feComposite in2="afterOffset" operator="in"></feComposite><feMorphology operator="dilate" radius="1"></feMorphology><feComposite in2="SourceAlpha" operator="out"></feComposite></filter><path d="M0 300L600 300L600 1003.13L0 1003.13L0 300Z" id="j1QnDYsjza" fill="white" fill-opacity="1" filter="url(#shadow6618375)"></path></g><use xlink:href="#csduYplNt" opacity="1" fill="#333333" fill-opacity="1"></use><g><use xlink:href="#csduYplNt" opacity="1" fill-opacity="0" stroke="#000000" stroke-width="0" stroke-opacity="1"></use></g></g><g><g><filter id="shadow4105849" x="-9" y="1091" width="619" height="119" filterUnits="userSpaceOnUse" primitiveUnits="userSpaceOnUse"><feFlood></feFlood><feComposite in2="SourceAlpha" operator="in"></feComposite><feGaussianBlur stdDeviation="1"></feGaussianBlur><feOffset dx="1" dy="1" result="afterOffset"></feOffset><feFlood flood-color="#000000" flood-opacity="0.5"></feFlood><feComposite in2="afterOffset" operator="in"></feComposite><feMorphology operator="dilate" radius="1"></feMorphology><feComposite in2="SourceAlpha" operator="out"></feComposite></filter><path d="M0 1100L600 1100L600 1200L0 1200L0 1100Z" id="c2HuR7WLHN" fill="white" fill-opacity="1" filter="url(#shadow4105849)"></path></g><use xlink:href="#a2l5yCyPe" opacity="1" fill="#333333" fill-opacity="1"></use><g><use xlink:href="#a2l5yCyPe" opacity="1" fill-opacity="0" stroke="#000000" stroke-width="1" stroke-opacity="1"></use></g></g><g><use xlink:href="#a2EFwlsKV" opacity="1" fill="#333333" fill-opacity="1"></use><g><use xlink:href="#a2EFwlsKV" opacity="1" fill-opacity="0" stroke="#000000" stroke-width="1" stroke-opacity="1"></use></g></g><g><use xlink:href="#ct921zzW" opacity="1" fill="#2d2d2d" fill-opacity="1"></use></g><g><use xlink:href="#anZk0Dz9M" opacity="1" fill="#2d2d2d" fill-opacity="1"></use></g><g><use xlink:href="#f1i0i4yXuL" opacity="1" fill="#2d2d2d" fill-opacity="1"></use></g><g><use xlink:href="#b3MYUkXv" opacity="1" fill="#2d2d2d" fill-opacity="1"></use></g><g><use xlink:href="#b2Lk5HHoTH" opacity="1" fill="#2d2d2d" fill-opacity="1"></use></g><g><use xlink:href="#g7Eywgw5wb" opacity="1" fill="#3c3a3a" fill-opacity="1"></use></g></g></g></svg>