<?xml version="1.0" encoding="UTF-8" standalone="no"?>
<!DOCTYPE svg PUBLIC "-//W3C//DTD SVG 1.1//EN" "http://www.w3.org/Graphics/SVG/1.1/DTD/svg11.dtd">
<svg version="1.1" xmlns="http://www.w3.org/2000/svg" xmlns:xlink="http://www.w3.org/1999/xlink" preserveAspectRatio="xMidYMid meet" viewBox="0 0 640 640" width="50" height="50"><defs><path d="M471.58 398.62C471.58 484.26 403.66 553.79 320 553.79C236.34 553.79 168.42 484.26 168.42 398.62C168.42 312.98 236.34 243.45 320 243.45C403.66 243.45 471.58 312.98 471.58 398.62Z" id="b1Bbnjc8"></path><path d="M640 502.07C640 521.1 624.91 536.55 606.32 536.55C587.72 536.55 572.63 521.1 572.63 502.07C572.63 483.04 587.72 467.59 606.32 467.59C624.91 467.59 640 483.04 640 502.07Z" id="gjJUnAhWK"></path><path d="M67.37 502.07C67.37 521.1 52.28 536.55 33.68 536.55C15.09 536.55 0 521.1 0 502.07C0 483.04 15.09 467.59 33.68 467.59C52.28 467.59 67.37 483.04 67.37 502.07Z" id="a28zSKmhGW"></path><path d="M437.89 542.46C437.89 507.66 385.07 479.4 320 479.4C254.93 479.4 202.11 507.66 202.11 542.46C202.11 577.26 254.93 605.52 320 605.52C385.07 605.52 437.89 577.26 437.89 542.46Z" id="c4KQONbF0"></path><path d="M33.68 467.59L606.32 467.59L606.32 536.55L33.68 536.55L33.68 467.59Z" id="hkP8xSPiA"></path><path d="M101.05 433.1L538.95 433.1L538.95 467.59L101.05 467.59L101.05 433.1Z" id="eEkj1NjEt"></path><path d="M101.05 571.03L67.37 536.55L101.05 536.55L101.05 571.03Z" id="a6TZuJAVX8"></path><path d="M101.05 536.55L538.95 536.55L538.95 571.03L101.05 571.03L101.05 536.55Z" id="h2hvMIrtCl"></path><path d="M538.95 571.03L572.63 536.55L538.95 536.55L538.95 571.03Z" id="bxOHTa6aG"></path><path d="M538.95 433.1L572.63 467.59L538.95 467.59L538.95 433.1Z" id="cpw9gTc1z"></path><path d="M101.05 433.1L67.37 467.59L101.05 467.59L101.05 433.1Z" id="aOV7WWEFf"></path><path d="M322.92 208.31L324.83 243.34L321 243.34L317.17 243.34L319.09 208.31L321 173.28L322.92 208.31Z" id="cJ3RcA3tQ"></path><path d="M268.13 357.25C237.57 396.48 198.35 416.56 180.6 402.07C162.85 387.57 173.25 343.96 203.81 304.73C234.38 265.51 273.6 245.43 291.35 259.92C309.1 274.41 298.69 318.02 268.13 357.25Z" id="aQG9tnfBG"></path><path d="M336.84 157.24C336.84 166.76 329.3 174.48 320 174.48C310.7 174.48 303.16 166.76 303.16 157.24C303.16 147.73 310.7 140 320 140C329.3 140 336.84 147.73 336.84 157.24Z" id="b75nwAcSM5"></path><path d="M168.42 640L202.11 571.03L168.42 571.03L168.42 640Z" id="e20FYUhn8G"></path><path d="M471.58 640L437.89 571.03L471.58 571.03L471.58 640Z" id="a2oHXOflt"></path><path d="M134.74 398.62L505.26 398.62L505.26 433.1L134.74 433.1L134.74 398.62Z" id="a1HL6l7GsJ"></path><path d="M336.84 502.07C336.84 511.58 329.3 519.31 320 519.31C310.7 519.31 303.16 511.58 303.16 502.07C303.16 492.55 310.7 484.83 320 484.83C329.3 484.83 336.84 492.55 336.84 502.07Z" id="fH8Of2iqc"></path><path d="M404.21 502.07C404.21 511.58 396.66 519.31 387.37 519.31C378.07 519.31 370.53 511.58 370.53 502.07C370.53 492.55 378.07 484.83 387.37 484.83C396.66 484.83 404.21 492.55 404.21 502.07Z" id="c3mllGMVR"></path><path d="M471.58 502.07C471.58 511.58 464.03 519.31 454.74 519.31C445.44 519.31 437.89 511.58 437.89 502.07C437.89 492.55 445.44 484.83 454.74 484.83C464.03 484.83 471.58 492.55 471.58 502.07Z" id="alVOFXvpA"></path><path d="M538.95 502.07C538.95 511.58 531.4 519.31 522.11 519.31C512.81 519.31 505.26 511.58 505.26 502.07C505.26 492.55 512.81 484.83 522.11 484.83C531.4 484.83 538.95 492.55 538.95 502.07Z" id="dX1Fdcnoo"></path><path d="M269.47 502.07C269.47 511.58 261.93 519.31 252.63 519.31C243.34 519.31 235.79 511.58 235.79 502.07C235.79 492.55 243.34 484.83 252.63 484.83C261.93 484.83 269.47 492.55 269.47 502.07Z" id="ehjzXvEF"></path><path d="M202.11 502.07C202.11 511.58 194.56 519.31 185.26 519.31C175.97 519.31 168.42 511.58 168.42 502.07C168.42 492.55 175.97 484.83 185.26 484.83C194.56 484.83 202.11 492.55 202.11 502.07Z" id="h5qWyEscva"></path><path d="M134.74 502.07C134.74 511.58 127.19 519.31 117.89 519.31C108.6 519.31 101.05 511.58 101.05 502.07C101.05 492.55 108.6 484.83 117.89 484.83C127.19 484.83 134.74 492.55 134.74 502.07Z" id="a4FPbmxkSr"></path><path d="M299.15 279.76L180 397.06L299.15 397.06L299.15 279.76Z" id="g3XJh6LzsA"></path><path d="M613 467.59L599.63 467.59L599.63 536.55L613 536.55L613 467.59Z" id="csIVQCFjt"></path><path d="M38.51 467.59L28.86 467.59L28.86 536.55L38.51 536.55L38.51 467.59Z" id="c4P3dY1HAq"></path><path d="M542.29 537.65L533.6 537.65L533.6 571.03L542.29 571.03L542.29 537.65Z" id="fLfeLmqa"></path><path d="M114.56 537.65L100 537.65L100 571.03L114.56 571.03L114.56 537.65Z" id="l4c0g28v2"></path><path d="M540 433.1L524.63 433.1L524.63 466.49L540 466.49L540 433.1Z" id="fJtCjB1rz"></path><path d="M113.37 433.1L100 433.1L100 466.49L113.37 466.49L113.37 433.1Z" id="aauA4nS4F"></path><path d="M610.67 502.07C610.67 511.58 603.13 519.31 593.83 519.31C584.54 519.31 576.99 511.58 576.99 502.07C576.99 492.55 584.54 484.83 593.83 484.83C603.13 484.83 610.67 492.55 610.67 502.07Z" id="b105IvgG2E"></path><path d="M67.37 502.07C67.37 511.58 59.82 519.31 50.53 519.31C41.23 519.31 33.68 511.58 33.68 502.07C33.68 492.55 41.23 484.83 50.53 484.83C59.82 484.83 67.37 492.55 67.37 502.07Z" id="br9va0e62"></path></defs><g><g><g><use xlink:href="#b1Bbnjc8" opacity="1" fill="#8ec0e4" fill-opacity="1"></use><g><use xlink:href="#b1Bbnjc8" opacity="1" fill-opacity="0" stroke="#000000" stroke-width="1" stroke-opacity="1"></use></g></g><g><use xlink:href="#gjJUnAhWK" opacity="1" fill="#9055a2" fill-opacity="1"></use><g><use xlink:href="#gjJUnAhWK" opacity="1" fill-opacity="0" stroke="#000000" stroke-width="1" stroke-opacity="1"></use></g></g><g><use xlink:href="#a28zSKmhGW" opacity="1" fill="#9055a2" fill-opacity="1"></use><g><use xlink:href="#a28zSKmhGW" opacity="1" fill-opacity="0" stroke="#000000" stroke-width="1" stroke-opacity="1"></use></g></g><g><use xlink:href="#c4KQONbF0" opacity="1" fill="#fef4a9" fill-opacity="1"></use><g><use xlink:href="#c4KQONbF0" opacity="1" fill-opacity="0" stroke="#000000" stroke-width="1" stroke-opacity="1"></use></g></g><g><use xlink:href="#hkP8xSPiA" opacity="1" fill="#9055a2" fill-opacity="1"></use><g><use xlink:href="#hkP8xSPiA" opacity="1" fill-opacity="0" stroke="#000000" stroke-width="1" stroke-opacity="1"></use></g></g><g><use xlink:href="#eEkj1NjEt" opacity="1" fill="#a593e0" fill-opacity="1"></use><g><use xlink:href="#eEkj1NjEt" opacity="1" fill-opacity="0" stroke="#000000" stroke-width="1" stroke-opacity="1"></use></g></g><g><g><filter id="shadow3705765" x="58.37" y="527.55" width="52.68" height="53.48" filterUnits="userSpaceOnUse" primitiveUnits="userSpaceOnUse"><feFlood></feFlood><feComposite in2="SourceAlpha" operator="in"></feComposite><feGaussianBlur stdDeviation="1"></feGaussianBlur><feOffset dx="1" dy="1" result="afterOffset"></feOffset><feFlood flood-color="#000000" flood-opacity="0.5"></feFlood><feComposite in2="afterOffset" operator="in"></feComposite><feMorphology operator="dilate" radius="1"></feMorphology><feComposite in2="SourceAlpha" operator="out"></feComposite></filter><path d="M101.05 571.03L67.37 536.55L101.05 536.55L101.05 571.03Z" id="a1dNl25Ttl" fill="white" fill-opacity="1" filter="url(#shadow3705765)"></path></g><use xlink:href="#a6TZuJAVX8" opacity="1" fill="#a593e0" fill-opacity="1"></use><g><use xlink:href="#a6TZuJAVX8" opacity="1" fill-opacity="0" stroke="#000000" stroke-width="1" stroke-opacity="1"></use></g></g><g><use xlink:href="#h2hvMIrtCl" opacity="1" fill="#a593e0" fill-opacity="1"></use><g><use xlink:href="#h2hvMIrtCl" opacity="1" fill-opacity="0" stroke="#000000" stroke-width="1" stroke-opacity="1"></use></g></g><g><g><filter id="shadow12514392" x="529.95" y="527.55" width="52.68" height="53.48" filterUnits="userSpaceOnUse" primitiveUnits="userSpaceOnUse"><feFlood></feFlood><feComposite in2="SourceAlpha" operator="in"></feComposite><feGaussianBlur stdDeviation="1"></feGaussianBlur><feOffset dx="1" dy="1" result="afterOffset"></feOffset><feFlood flood-color="#000000" flood-opacity="0.5"></feFlood><feComposite in2="afterOffset" operator="in"></feComposite><feMorphology operator="dilate" radius="1"></feMorphology><feComposite in2="SourceAlpha" operator="out"></feComposite></filter><path d="M538.95 571.03L572.63 536.55L538.95 536.55L538.95 571.03Z" id="b1RnU5KGVq" fill="white" fill-opacity="1" filter="url(#shadow12514392)"></path></g><use xlink:href="#bxOHTa6aG" opacity="1" fill="#a593e0" fill-opacity="1"></use><g><use xlink:href="#bxOHTa6aG" opacity="1" fill-opacity="0" stroke="#000000" stroke-width="1" stroke-opacity="1"></use></g></g><g><g><filter id="shadow14360201" x="529.95" y="424.1" width="52.68" height="53.48" filterUnits="userSpaceOnUse" primitiveUnits="userSpaceOnUse"><feFlood></feFlood><feComposite in2="SourceAlpha" operator="in"></feComposite><feGaussianBlur stdDeviation="1"></feGaussianBlur><feOffset dx="1" dy="1" result="afterOffset"></feOffset><feFlood flood-color="#000000" flood-opacity="0.5"></feFlood><feComposite in2="afterOffset" operator="in"></feComposite><feMorphology operator="dilate" radius="1"></feMorphology><feComposite in2="SourceAlpha" operator="out"></feComposite></filter><path d="M538.95 433.1L572.63 467.59L538.95 467.59L538.95 433.1Z" id="b1D7fxgJCo" fill="white" fill-opacity="1" filter="url(#shadow14360201)"></path></g><use xlink:href="#cpw9gTc1z" opacity="1" fill="#a593e0" fill-opacity="1"></use><g><use xlink:href="#cpw9gTc1z" opacity="1" fill-opacity="0" stroke="#000000" stroke-width="1" stroke-opacity="1"></use></g></g><g><g><filter id="shadow4586653" x="61.37" y="427.1" width="45.68" height="46.48" filterUnits="userSpaceOnUse" primitiveUnits="userSpaceOnUse"><feFlood></feFlood><feComposite in2="SourceAlpha" operator="in"></feComposite><feGaussianBlur stdDeviation="0"></feGaussianBlur><feOffset dx="0" dy="0" result="afterOffset"></feOffset><feFlood flood-color="#000000" flood-opacity="0.5"></feFlood><feComposite in2="afterOffset" operator="in"></feComposite><feMorphology operator="dilate" radius="1"></feMorphology><feComposite in2="SourceAlpha" operator="out"></feComposite></filter><path d="M101.05 433.1L67.37 467.59L101.05 467.59L101.05 433.1Z" id="f2TbyDym2q" fill="white" fill-opacity="1" filter="url(#shadow4586653)"></path></g><use xlink:href="#aOV7WWEFf" opacity="1" fill="#a593e0" fill-opacity="1"></use><g><use xlink:href="#aOV7WWEFf" opacity="1" fill-opacity="0" stroke="#000000" stroke-width="1" stroke-opacity="1"></use></g></g><g><use xlink:href="#cJ3RcA3tQ" opacity="1" fill="#d8e6e7" fill-opacity="1"></use><g><use xlink:href="#cJ3RcA3tQ" opacity="1" fill-opacity="0" stroke="#000000" stroke-width="1" stroke-opacity="1"></use></g></g><g><use xlink:href="#aQG9tnfBG" opacity="1" fill="#d4dfe6" fill-opacity="1"></use><g><use xlink:href="#aQG9tnfBG" opacity="1" fill-opacity="0" stroke="#000000" stroke-width="0" stroke-opacity="1"></use></g></g><g><use xlink:href="#b75nwAcSM5" opacity="1" fill="#fef4a9" fill-opacity="1"></use><g><use xlink:href="#b75nwAcSM5" opacity="1" fill-opacity="0" stroke="#000000" stroke-width="1" stroke-opacity="1"></use></g></g><g><g><filter id="shadow14784604" x="159.42" y="562.03" width="52.68" height="87.97" filterUnits="userSpaceOnUse" primitiveUnits="userSpaceOnUse"><feFlood></feFlood><feComposite in2="SourceAlpha" operator="in"></feComposite><feGaussianBlur stdDeviation="1"></feGaussianBlur><feOffset dx="1" dy="1" result="afterOffset"></feOffset><feFlood flood-color="#000000" flood-opacity="0.5"></feFlood><feComposite in2="afterOffset" operator="in"></feComposite><feMorphology operator="dilate" radius="1"></feMorphology><feComposite in2="SourceAlpha" operator="out"></feComposite></filter><path d="M168.42 640L202.11 571.03L168.42 571.03L168.42 640Z" id="e4ZO0OgY5" fill="white" fill-opacity="1" filter="url(#shadow14784604)"></path></g><use xlink:href="#e20FYUhn8G" opacity="1" fill="#d8e6e7" fill-opacity="1"></use><g><use xlink:href="#e20FYUhn8G" opacity="1" fill-opacity="0" stroke="#000000" stroke-width="1" stroke-opacity="1"></use></g></g><g><g><filter id="shadow10840008" x="428.89" y="562.03" width="52.68" height="87.97" filterUnits="userSpaceOnUse" primitiveUnits="userSpaceOnUse"><feFlood></feFlood><feComposite in2="SourceAlpha" operator="in"></feComposite><feGaussianBlur stdDeviation="1"></feGaussianBlur><feOffset dx="1" dy="1" result="afterOffset"></feOffset><feFlood flood-color="#000000" flood-opacity="0.5"></feFlood><feComposite in2="afterOffset" operator="in"></feComposite><feMorphology operator="dilate" radius="1"></feMorphology><feComposite in2="SourceAlpha" operator="out"></feComposite></filter><path d="M471.58 640L437.89 571.03L471.58 571.03L471.58 640Z" id="bjs4HDbrk" fill="white" fill-opacity="1" filter="url(#shadow10840008)"></path></g><use xlink:href="#a2oHXOflt" opacity="1" fill="#d8e6e7" fill-opacity="1"></use><g><use xlink:href="#a2oHXOflt" opacity="1" fill-opacity="0" stroke="#000000" stroke-width="1" stroke-opacity="1"></use></g></g><g><use xlink:href="#a1HL6l7GsJ" opacity="1" fill="#a593e0" fill-opacity="1"></use><g><use xlink:href="#a1HL6l7GsJ" opacity="1" fill-opacity="0" stroke="#000000" stroke-width="1" stroke-opacity="1"></use></g></g><g><use xlink:href="#fH8Of2iqc" opacity="1" fill="#fef4a9" fill-opacity="1"></use><g><use xlink:href="#fH8Of2iqc" opacity="1" fill-opacity="0" stroke="#000000" stroke-width="1" stroke-opacity="1"></use></g></g><g><use xlink:href="#c3mllGMVR" opacity="1" fill="#fef4a9" fill-opacity="1"></use><g><use xlink:href="#c3mllGMVR" opacity="1" fill-opacity="0" stroke="#000000" stroke-width="1" stroke-opacity="1"></use></g></g><g><use xlink:href="#alVOFXvpA" opacity="1" fill="#fef4a9" fill-opacity="1"></use><g><use xlink:href="#alVOFXvpA" opacity="1" fill-opacity="0" stroke="#000000" stroke-width="1" stroke-opacity="1"></use></g></g><g><use xlink:href="#dX1Fdcnoo" opacity="1" fill="#fef4a9" fill-opacity="1"></use><g><use xlink:href="#dX1Fdcnoo" opacity="1" fill-opacity="0" stroke="#000000" stroke-width="1" stroke-opacity="1"></use></g></g><g><use xlink:href="#ehjzXvEF" opacity="1" fill="#fef4a9" fill-opacity="1"></use><g><use xlink:href="#ehjzXvEF" opacity="1" fill-opacity="0" stroke="#000000" stroke-width="1" stroke-opacity="1"></use></g></g><g><use xlink:href="#h5qWyEscva" opacity="1" fill="#fef4a9" fill-opacity="1"></use><g><use xlink:href="#h5qWyEscva" opacity="1" fill-opacity="0" stroke="#000000" stroke-width="1" stroke-opacity="1"></use></g></g><g><use xlink:href="#a4FPbmxkSr" opacity="1" fill="#fef4a9" fill-opacity="1"></use><g><use xlink:href="#a4FPbmxkSr" opacity="1" fill-opacity="0" stroke="#000000" stroke-width="1" stroke-opacity="1"></use></g></g><g><use xlink:href="#g3XJh6LzsA" opacity="1" fill="#d4dfe6" fill-opacity="1"></use><g><use xlink:href="#g3XJh6LzsA" opacity="1" fill-opacity="0" stroke="#000000" stroke-width="0" stroke-opacity="1"></use></g></g><g><use xlink:href="#csIVQCFjt" opacity="1" fill="#9055a2" fill-opacity="1"></use></g><g><use xlink:href="#c4P3dY1HAq" opacity="1" fill="#9055a2" fill-opacity="1"></use></g><g><use xlink:href="#fLfeLmqa" opacity="1" fill="#a593e0" fill-opacity="1"></use></g><g><use xlink:href="#l4c0g28v2" opacity="1" fill="#a593e0" fill-opacity="1"></use></g><g><use xlink:href="#fJtCjB1rz" opacity="1" fill="#a593e0" fill-opacity="1"></use></g><g><use xlink:href="#aauA4nS4F" opacity="1" fill="#a593e0" fill-opacity="1"></use></g><g><use xlink:href="#b105IvgG2E" opacity="1" fill="#fef4a9" fill-opacity="1"></use><g><use xlink:href="#b105IvgG2E" opacity="1" fill-opacity="0" stroke="#000000" stroke-width="1" stroke-opacity="1"></use></g></g><g><use xlink:href="#br9va0e62" opacity="1" fill="#fef4a9" fill-opacity="1"></use><g><use xlink:href="#br9va0e62" opacity="1" fill-opacity="0" stroke="#000000" stroke-width="1" stroke-opacity="1"></use></g></g></g></g></svg>