<?xml version="1.0" encoding="UTF-8" standalone="no"?>
<!DOCTYPE svg PUBLIC "-//W3C//DTD SVG 1.1//EN" "http://www.w3.org/Graphics/SVG/1.1/DTD/svg11.dtd">
<svg version="1.1" xmlns="http://www.w3.org/2000/svg" xmlns:xlink="http://www.w3.org/1999/xlink" preserveAspectRatio="xMidYMid meet" viewBox="0 0 640 640" width="50" height="50"><defs><path d="M58.31 61.01L455.56 0.19L641.44 356.52L359.05 637.55L-1.34 454.92L58.31 61.01Z" id="a2LUEL2KG"></path><path d="M258.81 170.6C258.81 182.16 250.22 191.55 239.64 191.55C229.06 191.55 220.48 182.16 220.48 170.6C220.48 159.03 229.06 149.64 239.64 149.64C250.22 149.64 258.81 159.03 258.81 170.6Z" id="cptQvIJRR"></path><path d="M177.57 6.56L561.37 100.66L615.24 492.17L264.7 640L-5.78 339.88L177.57 6.56Z" id="a1MQmibT91"></path><path d="M-5.9 183.82L348.78 0L634.95 278.77L457.1 634.89L61.04 576.21L-5.9 183.82Z" id="d482iEc8b"></path><path d="M399.67 224.28L586.83 247.43L451.4 359.74L483.37 518.33L315.96 443.45L148.57 518.33L180.55 359.74L45.11 247.43L232.28 224.28L315.96 80L399.67 224.28Z" id="d6zwfAiqf5"></path><path d="M480.11 266.67L596.38 416.72L385.02 450.21L252.43 646.05L201.84 452.2L3.62 423.22L183.73 269.93L193.79 56.17L355.71 155.26L560.14 52.13L480.11 266.67Z" id="a7Je3jkeW"></path><path d="M382.67 283.6L460 312.77L390.12 393.27L386.65 520L323.33 451.26L243.86 500.44L274.6 377.45L228.95 281.11L311.28 273.82L362.53 165.12L382.67 283.6Z" id="abViYWjExh"></path><path d="M311.73 280.79L396.49 225.76L390.73 328.28L471.78 394.02L372.64 416.92L337.99 512.59L282.48 424.21L180 417.6L244.83 340.07L216.15 240.33L311.73 280.79Z" id="b7gfnG4B6"></path></defs><g><g><g><use xlink:href="#a2LUEL2KG" opacity="1" fill="#a7765f" fill-opacity="1"></use></g><g><use xlink:href="#cptQvIJRR" opacity="1" fill="#ec6348" fill-opacity="1"></use></g><g><use xlink:href="#a1MQmibT91" opacity="1" fill="#a7765f" fill-opacity="1"></use></g><g><use xlink:href="#d482iEc8b" opacity="1" fill="#a7765f" fill-opacity="1"></use></g><g><use xlink:href="#d6zwfAiqf5" opacity="1" fill="#b60a06" fill-opacity="1"></use></g><g><use xlink:href="#a7Je3jkeW" opacity="1" fill="#b60a06" fill-opacity="1"></use></g><g><use xlink:href="#abViYWjExh" opacity="1" fill="#b64f06" fill-opacity="1"></use></g><g><use xlink:href="#b7gfnG4B6" opacity="1" fill="#b64f06" fill-opacity="1"></use></g></g></g></svg>