<?xml version="1.0" encoding="UTF-8" standalone="no"?>
<!DOCTYPE svg PUBLIC "-//W3C//DTD SVG 1.1//EN" "http://www.w3.org/Graphics/SVG/1.1/DTD/svg11.dtd">
<svg version="1.1" xmlns="http://www.w3.org/2000/svg" xmlns:xlink="http://www.w3.org/1999/xlink" preserveAspectRatio="xMidYMid meet" viewBox="0 0 640 640" width="640" height="640"><defs><path d="M216.08 351.74L4.13 583.79L216.08 583.79L216.08 351.74Z" id="a1KIecZwj8"></path><path d="M428.04 351.74L640 583.79L428.04 583.79L428.04 351.74Z" id="aL99frNoz"></path><path d="M428.04 219.14C428.04 340.09 380.55 438.29 322.06 438.29C263.57 438.29 216.08 340.09 216.08 219.14C216.08 98.2 263.57 0 322.06 0C380.55 0 428.04 98.2 428.04 219.14Z" id="b50D2Igap3"></path><path d="M237.24 443.7L409.93 443.42L410.16 614.67L237.48 614.95L237.24 443.7Z" id="b1Z9UsBR9h"></path><path d="M375.28 556.78L428.04 640L322.06 639.66L216.08 639.31L269.29 556.44L322.51 473.56L375.28 556.78Z" id="a1l9rrCLOM"></path><path d="M216.08 186L428.04 186L428.04 583.79L216.08 583.79L216.08 186Z" id="hlUUo68cd"></path><path d="M367.48 187.45L428.04 187.45L428.04 582.34L367.48 582.34L367.48 187.45Z" id="etWpFlniH"></path><path d="M380 368.97C380 438.78 352.86 495.45 319.44 495.45C286.02 495.45 258.88 438.78 258.88 368.97C258.88 299.16 286.02 242.48 319.44 242.48C352.86 242.48 380 299.16 380 368.97Z" id="a23QWPmEx8"></path><path d="M328.84 263.71L328.84 285.44L328.84 285.44L328.84 263.71Z" id="a5SBCPmDQ"></path><path d="M309.73 360.58C308.53 411.77 298.28 453.07 286.86 452.75C275.44 452.43 267.14 410.61 268.34 359.42C269.54 308.23 279.78 266.93 291.21 267.25C302.63 267.57 310.93 309.39 309.73 360.58Z" id="b9fqjI27LB"></path><path d="M306.92 33.48C306.7 41.94 299.16 48.62 290.1 48.39C281.04 48.16 273.86 41.1 274.08 32.64C274.3 24.18 281.83 17.5 290.89 17.73C299.96 17.96 307.14 25.02 306.92 33.48Z" id="a1tJSD7aBo"></path><path d="M367.48 26.39L428.04 186L367.48 186L367.48 26.39Z" id="h7PQGSH8d"></path><path d="M185.8 384.89L216.08 384.89L216.08 583.79L185.8 583.79L185.8 384.89Z" id="a1cITch5aL"></path><path d="M216.08 351.74L185.8 389.82L216.08 389.82L216.08 351.74Z" id="b1f4BP0bgr"></path></defs><g><g><g><use xlink:href="#a1KIecZwj8" opacity="1" fill="#fffff3" fill-opacity="1"></use><g><use xlink:href="#a1KIecZwj8" opacity="1" fill-opacity="0" stroke="#000000" stroke-width="1" stroke-opacity="1"></use></g></g><g><use xlink:href="#aL99frNoz" opacity="1" fill="#efefec" fill-opacity="1"></use><g><use xlink:href="#aL99frNoz" opacity="1" fill-opacity="0" stroke="#000000" stroke-width="1" stroke-opacity="1"></use></g></g><g><use xlink:href="#b50D2Igap3" opacity="1" fill="#587aea" fill-opacity="1"></use><g><use xlink:href="#b50D2Igap3" opacity="1" fill-opacity="0" stroke="#4b4747" stroke-width="2" stroke-opacity="1"></use></g></g><g><use xlink:href="#b1Z9UsBR9h" opacity="1" fill="#4b4747" fill-opacity="1"></use></g><g><use xlink:href="#a1l9rrCLOM" opacity="1" fill="#4b4747" fill-opacity="1"></use></g><g><g><filter id="shadow10370399" x="207.08" y="177" width="230.96" height="416.79" filterUnits="userSpaceOnUse" primitiveUnits="userSpaceOnUse"><feFlood></feFlood><feComposite in2="SourceAlpha" operator="in"></feComposite><feGaussianBlur stdDeviation="1"></feGaussianBlur><feOffset dx="1" dy="1" result="afterOffset"></feOffset><feFlood flood-color="#030303" flood-opacity="0.5"></feFlood><feComposite in2="afterOffset" operator="in"></feComposite><feMorphology operator="dilate" radius="1"></feMorphology><feComposite in2="SourceAlpha" operator="out"></feComposite></filter><path d="M216.08 186L428.04 186L428.04 583.79L216.08 583.79L216.08 186Z" id="ik75Z1iRG" fill="white" fill-opacity="1" filter="url(#shadow10370399)"></path></g><use xlink:href="#hlUUo68cd" opacity="1" fill="#fffff3" fill-opacity="1"></use><g><use xlink:href="#hlUUo68cd" opacity="1" fill-opacity="0" stroke="#000000" stroke-width="1" stroke-opacity="1"></use></g></g><g><use xlink:href="#etWpFlniH" opacity="1" fill="#efefec" fill-opacity="1"></use></g><g><use xlink:href="#a23QWPmEx8" opacity="1" fill="#587aea" fill-opacity="1"></use><g><use xlink:href="#a23QWPmEx8" opacity="1" fill-opacity="0" stroke="#4b4747" stroke-width="5" stroke-opacity="1"></use></g></g><g><use xlink:href="#a5SBCPmDQ" opacity="1" fill="#fffff3" fill-opacity="1"></use></g><g><use xlink:href="#b9fqjI27LB" opacity="1" fill="#91a6ea" fill-opacity="1"></use></g><g><use xlink:href="#a1tJSD7aBo" opacity="1" fill="#91a6ea" fill-opacity="1"></use></g><g><use xlink:href="#h7PQGSH8d" opacity="1" fill="#4a6cda" fill-opacity="1"></use></g><g><use xlink:href="#a1cITch5aL" opacity="1" fill="#efefec" fill-opacity="1"></use></g><g><use xlink:href="#b1f4BP0bgr" opacity="1" fill="#efefec" fill-opacity="1"></use></g></g></g></svg>